HIERARCHY
ROOT hip
{
	OFFSET 0.000000 0.000000 0.000000 
	CHANNELS 6 Xposition Yposition Zposition Xrotation Zrotation Yrotation
	JOINT abdomen
	{
		OFFSET 0.000000 3.402643 0.000000 
		CHANNELS 3 Xrotation Zrotation Yrotation
		JOINT chest
		{
			OFFSET 0.000000 8.438565 -0.680529 
			CHANNELS 3 Xrotation Zrotation Yrotation
			JOINT neck
			{
				OFFSET 0.000000 10.207942 -0.272212 
				CHANNELS 3 Xrotation Zrotation Yrotation
				JOINT head
				{
					OFFSET 0.000000 3.130431 0.000000 
					CHANNELS 3 Xrotation Zrotation Yrotation
					End Site
					{
						OFFSET 0.000000 3.130435 0.000000 
					}
				}
			}
			JOINT lCollar
			{
				OFFSET 3.470700 6.669187 -0.816635 
				CHANNELS 3 Yrotation Zrotation Xrotation
				JOINT lShldr
				{
					OFFSET 3.198488 0.000000 0.000000 
					CHANNELS 3 Zrotation Yrotation Xrotation
					JOINT lForeArm
					{
						OFFSET 10.139888 0.000000 0.000000 
						CHANNELS 3 Yrotation Zrotation Xrotation
						JOINT lHand
						{
							OFFSET 8.370511 0.000000 0.000000 
							CHANNELS 3 Zrotation Yrotation Xrotation
							End Site
							{
								OFFSET 4.083176 0.000000 0.000000 
							}
						}
					}
				}
			}
			JOINT rCollar
			{
				OFFSET -3.470700 6.669187 -0.816635 
				CHANNELS 3 Yrotation Zrotation Xrotation
				JOINT rShldr
				{
					OFFSET -3.198488 0.000000 0.000000 
					CHANNELS 3 Zrotation Yrotation Xrotation
					JOINT rForeArm
					{
						OFFSET -10.139888 0.000000 0.000000 
						CHANNELS 3 Yrotation Zrotation Xrotation
						JOINT rHand
						{
							OFFSET -8.370511 0.000000 0.000000 
							CHANNELS 3 Zrotation Yrotation Xrotation
							End Site
							{
								OFFSET -4.083176 0.000000 0.000000 
							}
						}
					}
				}
			}
		}
	}
	JOINT lThigh
	{
		OFFSET 5.308129 -1.633274 1.361059 
		CHANNELS 3 Xrotation Zrotation Yrotation
		JOINT lShin
		{
			OFFSET -2.041588 -20.007561 0.000000 
			CHANNELS 3 Xrotation Zrotation Yrotation
			JOINT lFoot
			{
				OFFSET 0.000000 -19.190928 -1.224953 
				CHANNELS 3 Xrotation Yrotation Zrotation
				End Site
				{
					OFFSET 0.000000 -2.449906 4.627600 
				}
			}
		}
	}
	JOINT rThigh
	{
		OFFSET -5.308129 -1.633274 1.361059 
		CHANNELS 3 Xrotation Zrotation Yrotation
		JOINT rShin
		{
			OFFSET 2.041588 -20.007561 0.000000 
			CHANNELS 3 Xrotation Zrotation Yrotation
			JOINT rFoot
			{
				OFFSET 0.000000 -19.190928 -1.224953 
				CHANNELS 3 Xrotation Yrotation Zrotation
				End Site
				{
					OFFSET 0.000000 -2.449906 4.627600 
				}
			}
		}
	}
}
MOTION
Frames: 11
Frame Time: 0.016667
0.808537 53.031540 0.338140 -12.124726 1.189055 8.146415 27.480259 2.278868 -1.804683 4.076835 0.907124 -4.170189 -0.726718 5.075225 -0.204347 9.613035 -3.739545 7.241668 -18.288033 -11.877925 -0.628551 -59.141644 14.868279 -24.968609 -29.685432 -5.000000 30.354078 -16.462561 -4.698270 5.031389 14.416080 13.295026 -0.698962 62.984810 -4.155366 -14.992146 23.264318 5.000000 12.683795 13.437576 -22.927937 7.091920 14.722795 11.666626 -1.511603 12.076775 -4.559358 -1.131657 -14.926337 7.446348 -2.682703 22.635374 -6.767869 -8.929410 1.729631 4.030138 0.229935 -7.591490 -20.099487 6.488569 
0.924040 53.032970 0.187880 -12.115447 0.976283 8.184894 27.876160 2.441044 -1.810211 4.084052 0.946109 -4.199477 -0.883936 5.102735 -0.218346 9.441671 -3.730260 7.192944 -18.422894 -11.712120 -0.619994 -59.192127 14.154574 -24.274307 -29.898077 -5.000000 30.019398 -16.354204 -4.817963 4.851927 14.337469 13.256018 -0.696941 63.203934 -3.560392 -14.320397 23.570055 5.000000 12.440617 13.516307 -22.904696 6.793401 13.981529 11.637673 -1.480082 13.225176 -4.480255 -1.204540 -15.126811 7.436002 -2.456602 22.192041 -6.796412 -8.910962 2.177513 4.040984 0.262105 -7.509060 -20.050091 6.754025 
1.062297 53.032368 0.007357 -12.071073 0.744350 8.155000 28.340364 2.607216 -1.822811 4.091872 0.975345 -4.248297 -1.079513 5.170324 -0.228566 9.188865 -3.681179 7.270905 -18.566589 -11.458542 -0.606901 -59.382908 13.339236 -23.556629 -30.183292 -5.000000 29.486071 -16.243401 -4.902749 4.864245 14.278754 13.246265 -0.696436 63.378201 -2.857560 -13.484108 23.898279 5.000000 12.185569 13.583242 -22.804873 6.525587 13.139595 11.607224 -1.291564 14.437469 -4.444223 -1.294914 -15.454242 7.353997 -2.116807 21.661760 -6.892709 -8.890782 2.647060 4.138053 0.317124 -7.418622 -19.943291 6.980063 
1.223306 53.029728 -0.203430 -11.992194 0.483473 8.047164 28.872698 2.768671 -1.846896 4.110088 0.994835 -4.307054 -1.334840 5.294389 -0.257161 8.873975 -3.602095 7.465818 -18.709528 -11.126948 -0.587878 -59.721031 12.423260 -22.792097 -30.520861 -5.000000 28.775925 -16.135118 -4.952262 5.108499 14.229925 13.246264 -0.696436 63.520042 -2.049692 -12.472137 24.248117 5.000000 11.894648 13.646656 -22.638918 6.274021 12.194827 11.521044 -0.917392 15.776334 -4.422569 -1.425496 -15.930202 7.374592 -1.623076 21.068661 -7.059508 -8.797984 3.123480 4.273236 0.343328 -7.269939 -19.790693 7.203647 
1.384317 53.027092 -0.414216 -11.910986 0.232128 7.939546 29.405802 2.931328 -1.847535 4.128614 1.004562 -4.375409 -1.589287 5.410257 -0.274677 8.560923 -3.513361 7.660754 -18.842810 -10.795354 -0.570777 -60.073700 11.516567 -22.030460 -30.844505 -5.000000 28.074919 -16.025831 -4.996142 5.340542 14.180975 13.236515 -0.695931 63.681637 -1.239016 -11.459273 24.598831 5.000000 11.614142 13.709764 -22.463556 6.028909 11.286975 11.462632 -0.555923 17.073387 -4.451458 -1.549707 -16.468739 7.385434 -1.107267 20.452267 -7.244803 -8.718512 3.613025 4.412328 0.420943 -7.144325 -19.672169 7.419124 
1.584028 53.018955 -0.684943 -11.668777 -0.212991 7.529316 29.987570 3.171225 -1.783787 4.231650 1.072786 -4.404693 -2.041716 5.658384 -0.332808 8.046659 -3.595771 8.199835 -18.808382 -10.457183 -0.542299 -60.514458 10.279022 -21.040758 -31.233912 -5.000000 27.085817 -15.824411 -5.098201 5.758089 14.134869 13.273136 -0.707169 63.672565 -0.130348 -10.027622 24.999317 5.000000 11.127369 13.767390 -22.289057 5.821546 10.203074 11.452060 0.484304 18.394562 -4.442200 -1.661234 -16.160700 7.132803 -0.483184 19.435011 -7.390397 -8.428713 4.185760 4.494941 0.476270 -6.817491 -19.381081 7.731449 
1.783741 53.010815 -0.955672 -11.429959 -0.658943 7.119565 30.550617 3.406241 -1.709887 4.324804 1.141004 -4.434164 -2.484651 5.896852 -0.388534 7.531662 -3.667880 8.748056 -18.775833 -10.115856 -0.524709 -60.964252 9.049128 -20.041422 -31.608309 -5.000000 26.107828 -15.625270 -5.203538 6.175627 14.076773 13.312156 -0.709190 63.690361 0.979360 -8.584566 25.410606 5.000000 10.640315 13.820881 -22.107462 5.625667 9.128874 11.463415 1.517111 19.699999 -4.435302 -1.762740 -15.835385 6.936965 0.182726 18.440445 -7.527383 -8.154118 4.755450 4.577942 0.531674 -6.516437 -19.145727 8.035465 
2.008028 53.004177 -1.275061 -11.019035 -1.242122 6.436992 31.113430 3.683575 -1.607348 4.414332 1.287263 -4.443911 -2.908955 6.075926 -0.445081 6.918899 -3.746311 9.551531 -18.675655 -9.842793 -0.510624 -61.471832 7.780701 -19.009510 -32.112259 -5.000000 24.854868 -15.611707 -5.159979 6.603745 14.145129 13.312143 -0.709188 63.621731 2.208822 -6.839278 25.848198 5.000000 9.989593 13.902834 -21.986053 5.308909 7.956750 11.580134 2.649251 20.874968 -4.406748 -1.869581 -15.852005 6.757252 0.681227 17.159986 -7.634295 -7.781419 5.237713 4.660744 0.572019 -6.040450 -18.674612 8.393376 
2.256891 52.999046 -1.643113 -10.431616 -1.953921 5.481647 31.656940 4.020038 -1.469452 4.481620 1.492055 -4.434601 -3.313412 6.187408 -0.492445 6.198973 -3.820470 10.609642 -18.507885 -9.647749 -0.500557 -62.007122 6.468958 -17.924557 -32.730022 -5.000000 23.358908 -15.770513 -4.991260 7.019478 14.349710 13.273100 -0.707160 63.470497 3.551750 -4.779191 26.334614 5.000000 9.153695 13.974841 -21.925449 4.925560 6.674499 11.779487 3.824509 21.912376 -4.358265 -1.913306 -16.167900 6.614221 0.975987 15.609149 -7.742406 -7.366900 5.709647 4.771232 0.631880 -5.467476 -17.927456 8.849471 
2.505751 52.993916 -2.011163 -9.829008 -2.657748 4.516365 32.202278 4.357102 -1.308480 4.548905 1.696847 -4.434868 -3.709321 6.297425 -0.548359 5.487839 -3.883170 11.667759 -18.340151 -9.452704 -0.490483 -62.580994 5.174014 -16.830534 -33.321281 -5.000000 21.887819 -15.927205 -4.808521 7.441246 14.542425 13.246264 -0.696436 63.373425 4.904399 -2.732168 26.807505 5.000000 8.332252 14.057090 -21.865641 4.542299 5.387860 12.016775 4.996856 22.978052 -4.298479 -1.976040 -16.498003 6.422566 1.267160 14.027308 -7.809939 -6.952391 6.167230 4.858283 0.681293 -4.880909 -17.260700 9.249343 
2.797196 52.959648 -2.473163 -8.919188 -3.598577 3.003776 32.818035 4.701555 -0.967713 4.568051 1.784835 -4.229849 -4.143835 6.555191 -0.608060 4.635661 -3.835611 12.959019 -18.307524 -9.062613 -0.468780 -63.238804 3.995762 -15.727369 -34.245655 -5.000000 20.185400 -15.664663 -4.835120 7.598642 14.766321 13.009731 -0.693504 63.451180 6.465155 -0.159850 27.299255 5.000000 7.049020 14.223218 -21.867161 4.378149 3.943181 12.427376 5.649241 23.785892 -4.436442 -2.143475 -16.919287 7.188561 1.580489 11.937792 -7.946468 -5.982539 6.601208 5.301301 0.811224 -4.528224 -16.612986 9.668740 
